<svg width="550" height="125" viewBox="0 0 550 125" fill="none" xmlns="http://www.w3.org/2000/svg">
<path d="M129.137 19.1686L168.793 64.2294C171.233 67.0016 169.264 71.3554 165.571 71.3554H161.118C160.526 71.3554 160.045 71.8367 160.045 72.4292V121.239C160.045 123.315 158.361 124.998 156.285 124.998L155.212 124.998C152.842 124.998 150.921 123.077 150.921 120.707V70.3034C150.921 68.8684 150.397 67.4827 149.449 66.4054L134.965 49.9447L120.475 33.4839C119.835 32.7557 118.702 32.7557 118.061 33.4839L98.4382 55.7764L94.8891 59.8119L89.0873 66.4054C88.1392 67.4827 87.6161 68.8684 87.6161 70.3034V120.707C87.6161 123.077 85.6951 125 83.3248 125L14.1181 124.998C11.7478 124.998 9.82683 123.077 9.82683 120.707V72.4292C9.82683 71.8367 9.34549 71.3554 8.75291 71.3554H4.30008C0.606954 71.3554 -1.36146 67.0016 1.07832 64.2294L40.7347 19.1686C41.5495 18.2428 42.7231 17.7129 43.9565 17.7129H125.915C127.148 17.7129 128.322 18.2428 129.137 19.1686Z" fill="#4C9C62"/>
<path d="M82.5185 71.4041L8.75195 71.3555C9.34454 71.3555 9.82591 71.8368 9.82591 72.4293V76.9352L82.5185 91.5202V71.4041Z" fill="#151C18" fill-opacity="0.25"/>
<path fill-rule="evenodd" clip-rule="evenodd" d="M156.286 70.2988C156.286 67.5589 155.287 64.913 153.477 62.8561L147.211 55.7359C151.563 49.9177 154.14 42.6953 154.14 34.871C154.14 15.6123 138.528 -8.41824e-07 119.269 0C100.01 8.41825e-07 84.3979 15.6123 84.3979 34.871C84.3979 42.6953 86.9748 49.9177 91.3263 55.7359L85.0604 62.8561C83.2504 64.913 82.252 67.5589 82.252 70.2988V124.999V124.999C85.2148 124.999 87.6167 122.597 87.6167 119.634V70.2988C87.6167 68.8636 88.1397 67.4776 89.0878 66.4002L94.8913 59.8053L98.4412 55.7714L118.061 33.4766C118.701 32.7484 119.836 32.7484 120.477 33.4766L134.963 49.9384L140.096 55.7714C136.267 59.5871 131.396 62.3575 125.947 63.6183C124.698 61.2013 122.177 59.5489 119.269 59.5489C116.361 59.5489 113.839 61.2013 112.591 63.6183C112.059 64.6493 111.758 65.8193 111.758 67.0596C111.758 67.7251 111.845 68.3703 112.007 68.9848C112.857 72.2 115.786 74.5702 119.269 74.5702C122.751 74.5702 125.68 72.2 126.53 68.9848C133.113 67.5905 139.009 64.3394 143.646 59.8053L149.45 66.4002C150.398 67.4776 150.921 68.8636 150.921 70.2988V119.634C150.921 122.597 153.323 124.999 156.286 124.999V124.999V70.2988ZM114.033 29.9325C116.81 26.7767 121.727 26.7767 124.504 29.9325L143.575 51.6037C146.855 46.8487 148.775 41.0841 148.775 34.871C148.775 18.5751 135.565 5.36476 119.269 5.36476C102.973 5.36476 89.7626 18.5751 89.7626 34.871C89.7626 41.0841 91.683 46.8488 94.9626 51.6037L114.033 29.9325Z" fill="#151C18"/>
<path d="M250.839 107.192C249.941 104.561 249.011 101.962 248.049 99.3953C247.087 96.8285 246.157 94.1975 245.259 91.5023H217.168C216.27 94.1975 215.34 96.8606 214.378 99.4916C213.48 102.058 212.582 104.625 211.685 107.192H199.082C201.583 100.069 203.956 93.4916 206.201 87.4595C208.446 81.4275 210.626 75.7162 212.743 70.3259C214.923 64.9355 217.072 59.8018 219.188 54.9249C221.305 50.0479 223.485 45.235 225.73 40.4864H237.178C239.423 45.235 241.603 50.0479 243.72 54.9249C245.836 59.8018 247.953 64.9355 250.069 70.3259C252.25 75.7162 254.463 81.4275 256.707 87.4595C259.016 93.4916 261.421 100.069 263.922 107.192H250.839ZM231.214 53.3848C229.739 56.7858 228.039 60.9248 226.115 65.8018C224.255 70.6788 222.299 75.9729 220.247 81.6841H242.181C240.128 75.9729 238.14 70.6467 236.216 65.7056C234.292 60.7644 232.625 56.6575 231.214 53.3848Z" fill="#151C18"/>
<path d="M275.851 73.7911C275.851 77.4489 276.3 80.7857 277.198 83.8018C278.095 86.7536 279.378 89.2884 281.046 91.406C282.777 93.4595 284.862 95.0638 287.299 96.2189C289.736 97.3739 292.494 97.9515 295.572 97.9515C298.587 97.9515 301.312 97.3739 303.749 96.2189C306.187 95.0638 308.239 93.4595 309.906 91.406C311.638 89.2884 312.953 86.7536 313.851 83.8018C314.749 80.7857 315.198 77.4489 315.198 73.7911C315.198 70.1334 314.749 66.8286 313.851 63.8767C312.953 60.8607 311.638 58.3259 309.906 56.2724C308.239 54.1548 306.187 52.5184 303.749 51.3634C301.312 50.2083 298.587 49.6308 295.572 49.6308C292.494 49.6308 289.736 50.2083 287.299 51.3634C284.862 52.5184 282.777 54.1548 281.046 56.2724C279.378 58.3901 278.095 60.9248 277.198 63.8767C276.3 66.8286 275.851 70.1334 275.851 73.7911ZM327.896 73.7911C327.896 79.5023 327.03 84.5397 325.299 88.9034C323.631 93.267 321.322 96.9247 318.372 99.8766C315.486 102.764 312.087 104.946 308.175 106.422C304.263 107.898 300.094 108.636 295.668 108.636C291.243 108.636 287.042 107.898 283.066 106.422C279.154 104.946 275.722 102.764 272.772 99.8766C269.886 96.9247 267.577 93.267 265.846 88.9034C264.114 84.5397 263.248 79.5023 263.248 73.7911C263.248 68.0799 264.114 63.0746 265.846 58.7751C267.577 54.4115 269.918 50.7537 272.868 47.8019C275.883 44.85 279.346 42.6361 283.258 41.1602C287.171 39.6843 291.307 38.9463 295.668 38.9463C300.03 38.9463 304.166 39.6843 308.079 41.1602C311.991 42.6361 315.39 44.85 318.276 47.8019C321.226 50.7537 323.567 54.4115 325.299 58.7751C327.03 63.0746 327.896 68.0799 327.896 73.7911Z" fill="#151C18"/>
<path d="M369.189 82.2617C369.189 77.0638 368.002 73.0211 365.629 70.1334C363.321 67.2457 359.569 65.8018 354.374 65.8018C353.283 65.8018 352.129 65.866 350.91 65.9943C349.756 66.0585 348.602 66.251 347.447 66.5719V95.3525C348.473 96.0584 349.82 96.7322 351.488 97.3739C353.219 97.9515 355.047 98.2402 356.971 98.2402C361.204 98.2402 364.283 96.7964 366.207 93.9087C368.195 91.021 369.189 87.1387 369.189 82.2617ZM381.118 82.0692C381.118 85.9194 380.605 89.4488 379.579 92.6574C378.617 95.8659 377.206 98.6253 375.346 100.935C373.486 103.246 371.145 105.042 368.323 106.326C365.565 107.609 362.423 108.251 358.895 108.251C356.522 108.251 354.342 107.962 352.353 107.385C350.365 106.807 348.73 106.165 347.447 105.459V125H335.807V58.4863C338.18 57.8446 341.098 57.235 344.561 56.6575C348.024 56.0799 351.68 55.7912 355.528 55.7912C359.504 55.7912 363.064 56.4008 366.207 57.62C369.349 58.8393 372.011 60.604 374.191 62.9141C376.436 65.1601 378.136 67.9195 379.29 71.1922C380.509 74.4007 381.118 78.0264 381.118 82.0692Z" fill="#151C18"/>
<path d="M385.515 82.2617C385.515 77.8339 386.156 73.9515 387.439 70.6146C388.786 67.2778 390.549 64.5184 392.73 62.3366C394.91 60.0906 397.412 58.4222 400.234 57.3313C403.056 56.1762 405.942 55.5987 408.892 55.5987C415.818 55.5987 421.206 57.7484 425.054 62.0478C428.966 66.3473 430.922 72.7644 430.922 81.2991C430.922 81.9408 430.89 82.6788 430.826 83.513C430.826 84.2831 430.794 84.9889 430.73 85.6307H397.54C397.861 89.6734 399.272 92.8178 401.773 95.0638C404.338 97.2456 408.026 98.3365 412.836 98.3365C415.658 98.3365 418.223 98.0798 420.532 97.5664C422.905 97.0531 424.765 96.5076 426.112 95.9301L427.651 105.459C427.01 105.78 426.112 106.133 424.958 106.518C423.867 106.839 422.585 107.128 421.11 107.385C419.699 107.705 418.159 107.962 416.492 108.155C414.824 108.347 413.125 108.443 411.393 108.443C406.968 108.443 403.12 107.802 399.849 106.518C396.578 105.171 393.884 103.342 391.768 101.032C389.651 98.6573 388.08 95.898 387.054 92.7536C386.028 89.5451 385.515 86.0478 385.515 82.2617ZM419.282 77.0638C419.282 75.4596 419.057 73.9515 418.608 72.5398C418.159 71.0638 417.486 69.8125 416.588 68.7858C415.754 67.6949 414.696 66.8607 413.413 66.2831C412.195 65.6414 410.72 65.3205 408.988 65.3205C407.192 65.3205 405.621 65.6735 404.274 66.3794C402.927 67.0211 401.773 67.8874 400.811 68.9783C399.913 70.0692 399.207 71.3205 398.694 72.7323C398.181 74.1441 397.829 75.5879 397.636 77.0638H419.282Z" fill="#151C18"/>
<path d="M467.122 67.3419C466.16 67.0211 464.813 66.7002 463.082 66.3794C461.414 65.9943 459.458 65.8018 457.213 65.8018C455.931 65.8018 454.552 65.9302 453.077 66.1869C451.666 66.4435 450.671 66.6681 450.094 66.8607V107.192H438.454V59.2564C440.699 58.4222 443.488 57.6521 446.823 56.9462C450.223 56.1762 453.974 55.7912 458.079 55.7912C458.849 55.7912 459.747 55.8553 460.773 55.9837C461.799 56.0478 462.825 56.1762 463.851 56.3687C464.877 56.497 465.871 56.6896 466.834 56.9462C467.796 57.1388 468.565 57.3313 469.142 57.5238L467.122 67.3419Z" fill="#151C18"/>
<path d="M490.145 99.0103C493.737 99.0103 496.463 98.8178 498.322 98.4328V85.5344C497.681 85.3419 496.751 85.1494 495.533 84.9569C494.314 84.7643 492.967 84.6681 491.492 84.6681C490.209 84.6681 488.895 84.7643 487.548 84.9569C486.265 85.1494 485.079 85.5023 483.988 86.0157C482.962 86.529 482.128 87.267 481.487 88.2296C480.846 89.128 480.525 90.283 480.525 91.6948C480.525 94.4542 481.391 96.3793 483.122 97.4702C484.854 98.4969 487.195 99.0103 490.145 99.0103ZM489.183 55.5987C493.031 55.5987 496.27 56.0799 498.9 57.0425C501.529 58.0051 503.614 59.3527 505.153 61.0853C506.756 62.8179 507.879 64.9355 508.52 67.4382C509.225 69.8767 509.578 72.5719 509.578 75.5237V106.037C507.782 106.422 505.057 106.871 501.401 107.385C497.809 107.962 493.737 108.251 489.183 108.251C486.169 108.251 483.411 107.962 480.91 107.385C478.409 106.807 476.26 105.877 474.464 104.593C472.733 103.31 471.354 101.641 470.328 99.5878C469.366 97.5344 468.885 94.9996 468.885 91.9836C468.885 89.0959 469.43 86.6574 470.52 84.6681C471.674 82.6788 473.214 81.0745 475.138 79.8553C477.062 78.5718 479.274 77.6735 481.776 77.1601C484.341 76.5826 487.003 76.2938 489.76 76.2938C491.043 76.2938 492.39 76.39 493.801 76.5825C495.212 76.7109 496.719 76.9676 498.322 77.3526V75.4275C498.322 74.0799 498.162 72.7965 497.841 71.5772C497.521 70.358 496.944 69.2991 496.11 68.4008C495.34 67.4382 494.282 66.7002 492.935 66.1869C491.652 65.6735 490.017 65.4168 488.029 65.4168C485.335 65.4168 482.866 65.6093 480.621 65.9943C478.377 66.3794 476.549 66.8286 475.138 67.3419L473.695 57.9088C475.17 57.3954 477.318 56.8821 480.14 56.3687C482.962 55.8553 485.977 55.5987 489.183 55.5987Z" fill="#151C18"/>
<path d="M518.446 43.5666L530.087 41.6415V56.85H547.98V66.5719H530.087V87.0745C530.087 91.1173 530.728 94.005 532.011 95.7376C533.293 97.4702 535.474 98.3365 538.552 98.3365C540.669 98.3365 542.529 98.1119 544.132 97.6627C545.8 97.2135 547.114 96.7964 548.076 96.4114L550 105.652C548.654 106.23 546.89 106.807 544.709 107.385C542.529 108.026 539.963 108.347 537.013 108.347C533.422 108.347 530.407 107.866 527.97 106.903C525.597 105.941 523.705 104.561 522.294 102.764C520.883 100.903 519.889 98.6894 519.312 96.1226C518.735 93.4916 518.446 90.5076 518.446 87.1708V43.5666Z" fill="#151C18"/>
</svg>
